<svg width="124" height="67" viewBox="0 0 124 67" fill="none" xmlns="http://www.w3.org/2000/svg">
<path d="M56.6818 8.36364H57.4545L61.9375 18.9773H62.017L66.5 8.36364H67.2727V20H66.5909V10.0511H66.5227L62.3125 20H61.642L57.4318 10.0511H57.3636V20H56.6818V8.36364ZM72.7031 20.1875C72.1993 20.1875 71.7372 20.0871 71.3168 19.8864C70.9001 19.6856 70.5649 19.392 70.3111 19.0057C70.0611 18.6193 69.9361 18.1496 69.9361 17.5966C69.9361 17.233 70.0005 16.9129 70.1293 16.6364C70.258 16.3598 70.4569 16.1212 70.7259 15.9205C70.9948 15.7197 71.3395 15.5549 71.7599 15.4261C72.1804 15.2936 72.6823 15.1913 73.2656 15.1193C73.7088 15.0663 74.1046 15.0152 74.4531 14.9659C74.8016 14.9129 75.0743 14.8314 75.2713 14.7216C75.4721 14.6117 75.5724 14.4451 75.5724 14.2216V13.858C75.5724 13.2216 75.3717 12.7159 74.9702 12.3409C74.5687 11.9659 74.0156 11.7784 73.3111 11.7784C72.6861 11.7784 72.1596 11.9167 71.7315 12.1932C71.3073 12.4659 71.0099 12.8182 70.8395 13.25L70.1861 13.0057C70.3527 12.589 70.5933 12.2424 70.9077 11.9659C71.2259 11.6894 71.5895 11.483 71.9986 11.3466C72.4115 11.2102 72.8433 11.142 73.294 11.142C73.6842 11.142 74.0554 11.197 74.4077 11.3068C74.7637 11.4167 75.08 11.5833 75.3565 11.8068C75.6368 12.0303 75.8584 12.3163 76.0213 12.6648C76.1842 13.0095 76.2656 13.4223 76.2656 13.9034V20H75.5724V18.4261H75.5213C75.3698 18.7519 75.1615 19.0492 74.8963 19.3182C74.6349 19.5833 74.3187 19.7955 73.9474 19.9545C73.58 20.1098 73.1652 20.1875 72.7031 20.1875ZM72.7713 19.5455C73.3168 19.5455 73.7997 19.4129 74.2202 19.1477C74.6444 18.8788 74.9759 18.5114 75.2145 18.0455C75.4531 17.5795 75.5724 17.0511 75.5724 16.4602V15.1761C75.4853 15.2519 75.3584 15.3201 75.1918 15.3807C75.0289 15.4375 74.8433 15.4886 74.6349 15.5341C74.4304 15.5758 74.2145 15.6136 73.9872 15.6477C73.7637 15.678 73.5459 15.7064 73.3338 15.733C72.6974 15.8087 72.1785 15.9261 71.777 16.0852C71.3793 16.2405 71.0876 16.4451 70.902 16.6989C70.7202 16.9527 70.6293 17.2595 70.6293 17.6193C70.6293 18.214 70.8338 18.6837 71.2429 19.0284C71.652 19.3731 72.1615 19.5455 72.7713 19.5455ZM79.1719 20V11.2727H79.848V12.6364H79.9105C80.0999 12.1894 80.42 11.8314 80.8707 11.5625C81.3215 11.2898 81.8348 11.1534 82.4105 11.1534C82.4711 11.1534 82.5317 11.1534 82.5923 11.1534C82.6529 11.1534 82.7098 11.1553 82.7628 11.1591V11.858C82.7173 11.8542 82.6624 11.8485 82.598 11.8409C82.5374 11.8295 82.4616 11.8239 82.3707 11.8239C81.8859 11.8239 81.4541 11.928 81.0753 12.1364C80.7003 12.3447 80.4048 12.6326 80.1889 13C79.973 13.3636 79.8651 13.7803 79.8651 14.25V20H79.1719ZM88.2571 11.2727V11.892H84.4446V11.2727H88.2571ZM85.7344 9.18182H86.4219V17.9375C86.4219 18.2936 86.4901 18.5852 86.6264 18.8125C86.7666 19.036 86.9484 19.2027 87.1719 19.3125C87.3991 19.4186 87.6416 19.4716 87.8991 19.4716C88.0241 19.4716 88.1321 19.4621 88.223 19.4432C88.3177 19.4242 88.4067 19.3996 88.4901 19.3693L88.6605 20C88.5545 20.0379 88.437 20.0701 88.3082 20.0966C88.1795 20.1269 88.0279 20.142 87.8537 20.142C87.4901 20.142 87.1454 20.0606 86.8196 19.8977C86.4976 19.7348 86.2363 19.4981 86.0355 19.1875C85.8348 18.8769 85.7344 18.5019 85.7344 18.0625V9.18182ZM90.8622 20V11.2727H91.5497V20H90.8622ZM91.2088 9.72727C91.0573 9.72727 90.9247 9.67424 90.8111 9.56818C90.7012 9.46212 90.6463 9.33333 90.6463 9.18182C90.6463 9.0303 90.7012 8.90151 90.8111 8.79545C90.9209 8.68939 91.0535 8.63636 91.2088 8.63636C91.3603 8.63636 91.491 8.68939 91.6009 8.79545C91.7145 8.90151 91.7713 9.0303 91.7713 9.18182C91.7713 9.33333 91.7164 9.46212 91.6065 9.56818C91.4967 9.67424 91.3641 9.72727 91.2088 9.72727ZM95.1463 14.3409V20H94.4531V11.2727H95.1293V12.6534H95.1974C95.402 12.2027 95.7296 11.8409 96.1804 11.5682C96.6312 11.2955 97.1671 11.1591 97.7884 11.1591C98.3755 11.1591 98.8906 11.2841 99.3338 11.5341C99.7808 11.7841 100.129 12.1402 100.379 12.6023C100.633 13.0606 100.76 13.608 100.76 14.2443V20H100.067V14.2727C100.067 13.5303 99.8452 12.9337 99.402 12.483C98.9626 12.0284 98.3812 11.8011 97.6577 11.8011C97.1728 11.8011 96.741 11.9072 96.3622 12.1193C95.9834 12.3314 95.6861 12.6288 95.4702 13.0114C95.2543 13.3902 95.1463 13.8333 95.1463 14.3409ZM61.0455 27.3636H61.7557V35.8352C61.7557 36.608 61.6212 37.2386 61.3523 37.7273C61.0871 38.2159 60.7292 38.5777 60.2784 38.8125C59.8314 39.0436 59.3295 39.1591 58.7727 39.1591C58.2045 39.1591 57.6951 39.053 57.2443 38.8409C56.7973 38.625 56.4432 38.3277 56.1818 37.9489C55.9205 37.5701 55.7917 37.1326 55.7955 36.6364H56.5C56.4962 37 56.5928 37.322 56.7898 37.6023C56.9905 37.8788 57.2633 38.0985 57.608 38.2614C57.9527 38.4205 58.3409 38.5 58.7727 38.5C59.1894 38.5 59.5701 38.411 59.9148 38.233C60.2595 38.0549 60.5322 37.7708 60.733 37.3807C60.9375 36.9905 61.0417 36.4754 61.0455 35.8352V27.3636ZM68.1193 39.1818C67.3996 39.1818 66.7595 38.9886 66.1989 38.6023C65.6383 38.2121 65.197 37.6761 64.875 36.9943C64.553 36.3125 64.392 35.536 64.392 34.6648C64.392 33.7898 64.553 33.0133 64.875 32.3352C65.197 31.6534 65.6383 31.1174 66.1989 30.7273C66.7595 30.3371 67.3996 30.142 68.1193 30.142C68.839 30.142 69.4792 30.3371 70.0398 30.7273C70.6004 31.1174 71.0417 31.6534 71.3636 32.3352C71.6856 33.017 71.8466 33.7936 71.8466 34.6648C71.8466 35.536 71.6856 36.3125 71.3636 36.9943C71.0417 37.6761 70.6004 38.2121 70.0398 38.6023C69.4792 38.9886 68.839 39.1818 68.1193 39.1818ZM68.1193 38.5398C68.7292 38.5398 69.2614 38.3674 69.7159 38.0227C70.1742 37.678 70.5284 37.2121 70.7784 36.625C71.0322 36.0379 71.1591 35.3845 71.1591 34.6648C71.1591 33.9451 71.0322 33.2936 70.7784 32.7102C70.5246 32.1231 70.1705 31.6572 69.7159 31.3125C69.2614 30.964 68.7292 30.7898 68.1193 30.7898C67.5095 30.7898 66.9773 30.964 66.5227 31.3125C66.0682 31.6572 65.714 32.1231 65.4602 32.7102C65.2064 33.2936 65.0795 33.9451 65.0795 34.6648C65.0795 35.3845 65.2045 36.0379 65.4545 36.625C65.7083 37.2121 66.0625 37.678 66.517 38.0227C66.9754 38.3674 67.5095 38.5398 68.1193 38.5398ZM74.9276 33.3409V39H74.2344V30.2727H74.9105V31.6534H74.9787C75.1832 31.2027 75.5109 30.8409 75.9616 30.5682C76.4124 30.2955 76.9484 30.1591 77.5696 30.1591C78.1567 30.1591 78.6719 30.2841 79.1151 30.5341C79.562 30.7841 79.9105 31.1402 80.1605 31.6023C80.4143 32.0606 80.5412 32.608 80.5412 33.2443V39H79.848V33.2727C79.848 32.5303 79.6264 31.9337 79.1832 31.483C78.7438 31.0284 78.1624 30.8011 77.4389 30.8011C76.9541 30.8011 76.5223 30.9072 76.1435 31.1193C75.7647 31.3314 75.4673 31.6288 75.2514 32.0114C75.0355 32.3902 74.9276 32.8333 74.9276 33.3409ZM85.7344 39.1875C85.2306 39.1875 84.7685 39.0871 84.348 38.8864C83.9313 38.6856 83.5961 38.392 83.3423 38.0057C83.0923 37.6193 82.9673 37.1496 82.9673 36.5966C82.9673 36.233 83.0317 35.9129 83.1605 35.6364C83.2893 35.3598 83.4882 35.1212 83.7571 34.9205C84.026 34.7197 84.3707 34.5549 84.7912 34.4261C85.2116 34.2936 85.7135 34.1913 86.2969 34.1193C86.7401 34.0663 87.1359 34.0152 87.4844 33.9659C87.8329 33.9129 88.1056 33.8314 88.3026 33.7216C88.5033 33.6117 88.6037 33.4451 88.6037 33.2216V32.858C88.6037 32.2216 88.4029 31.7159 88.0014 31.3409C87.5999 30.9659 87.0469 30.7784 86.3423 30.7784C85.7173 30.7784 85.1908 30.9167 84.7628 31.1932C84.3385 31.4659 84.0412 31.8182 83.8707 32.25L83.2173 32.0057C83.384 31.589 83.6245 31.2424 83.9389 30.9659C84.2571 30.6894 84.6207 30.483 85.0298 30.3466C85.4427 30.2102 85.8745 30.142 86.3253 30.142C86.7154 30.142 87.0866 30.197 87.4389 30.3068C87.795 30.4167 88.1113 30.5833 88.3878 30.8068C88.6681 31.0303 88.8897 31.3163 89.0526 31.6648C89.2154 32.0095 89.2969 32.4223 89.2969 32.9034V39H88.6037V37.4261H88.5526C88.401 37.7519 88.1927 38.0492 87.9276 38.3182C87.6662 38.5833 87.3499 38.7955 86.9787 38.9545C86.6113 39.1098 86.1965 39.1875 85.7344 39.1875ZM85.8026 38.5455C86.348 38.5455 86.831 38.4129 87.2514 38.1477C87.6757 37.8788 88.0071 37.5114 88.2457 37.0455C88.4844 36.5795 88.6037 36.0511 88.6037 35.4602V34.1761C88.5166 34.2519 88.3897 34.3201 88.223 34.3807C88.0601 34.4375 87.8745 34.4886 87.6662 34.5341C87.4616 34.5758 87.2457 34.6136 87.0185 34.6477C86.795 34.678 86.5772 34.7064 86.3651 34.733C85.7287 34.8087 85.2098 34.9261 84.8082 35.0852C84.4105 35.2405 84.1188 35.4451 83.9332 35.6989C83.7514 35.9527 83.6605 36.2595 83.6605 36.6193C83.6605 37.214 83.8651 37.6837 84.2741 38.0284C84.6832 38.3731 85.1927 38.5455 85.8026 38.5455ZM95.2884 30.2727V30.892H91.4759V30.2727H95.2884ZM92.7656 28.1818H93.4531V36.9375C93.4531 37.2936 93.5213 37.5852 93.6577 37.8125C93.7978 38.036 93.9796 38.2027 94.2031 38.3125C94.4304 38.4186 94.6728 38.4716 94.9304 38.4716C95.0554 38.4716 95.1634 38.4621 95.2543 38.4432C95.349 38.4242 95.438 38.3996 95.5213 38.3693L95.6918 39C95.5857 39.0379 95.4683 39.0701 95.3395 39.0966C95.2107 39.1269 95.0592 39.142 94.8849 39.142C94.5213 39.142 94.1766 39.0606 93.8509 38.8977C93.5289 38.7348 93.2675 38.4981 93.0668 38.1875C92.866 37.8769 92.7656 37.5019 92.7656 37.0625V28.1818ZM98.7401 33.3409V39H98.0469V27.3636H98.7401V31.6534H98.8082C99.0128 31.1989 99.3385 30.8371 99.7855 30.5682C100.236 30.2955 100.776 30.1591 101.405 30.1591C101.992 30.1591 102.509 30.2841 102.956 30.5341C103.403 30.7803 103.751 31.1345 104.001 31.5966C104.255 32.0549 104.382 32.6042 104.382 33.2443V39H103.695V33.2727C103.695 32.5265 103.473 31.928 103.03 31.4773C102.587 31.0265 102.001 30.8011 101.274 30.8011C100.786 30.8011 100.35 30.9072 99.9673 31.1193C99.5848 31.3314 99.2836 31.6288 99.0639 32.0114C98.848 32.3902 98.7401 32.8333 98.7401 33.3409ZM109.562 39.1875C109.059 39.1875 108.597 39.0871 108.176 38.8864C107.759 38.6856 107.424 38.392 107.17 38.0057C106.92 37.6193 106.795 37.1496 106.795 36.5966C106.795 36.233 106.86 35.9129 106.989 35.6364C107.117 35.3598 107.316 35.1212 107.585 34.9205C107.854 34.7197 108.199 34.5549 108.619 34.4261C109.04 34.2936 109.542 34.1913 110.125 34.1193C110.568 34.0663 110.964 34.0152 111.312 33.9659C111.661 33.9129 111.934 33.8314 112.131 33.7216C112.331 33.6117 112.432 33.4451 112.432 33.2216V32.858C112.432 32.2216 112.231 31.7159 111.83 31.3409C111.428 30.9659 110.875 30.7784 110.17 30.7784C109.545 30.7784 109.019 30.9167 108.591 31.1932C108.167 31.4659 107.869 31.8182 107.699 32.25L107.045 32.0057C107.212 31.589 107.453 31.2424 107.767 30.9659C108.085 30.6894 108.449 30.483 108.858 30.3466C109.271 30.2102 109.703 30.142 110.153 30.142C110.544 30.142 110.915 30.197 111.267 30.3068C111.623 30.4167 111.939 30.5833 112.216 30.8068C112.496 31.0303 112.718 31.3163 112.881 31.6648C113.044 32.0095 113.125 32.4223 113.125 32.9034V39H112.432V37.4261H112.381C112.229 37.7519 112.021 38.0492 111.756 38.3182C111.494 38.5833 111.178 38.7955 110.807 38.9545C110.439 39.1098 110.025 39.1875 109.562 39.1875ZM109.631 38.5455C110.176 38.5455 110.659 38.4129 111.08 38.1477C111.504 37.8788 111.835 37.5114 112.074 37.0455C112.313 36.5795 112.432 36.0511 112.432 35.4602V34.1761C112.345 34.2519 112.218 34.3201 112.051 34.3807C111.888 34.4375 111.703 34.4886 111.494 34.5341C111.29 34.5758 111.074 34.6136 110.847 34.6477C110.623 34.678 110.405 34.7064 110.193 34.733C109.557 34.8087 109.038 34.9261 108.636 35.0852C108.239 35.2405 107.947 35.4451 107.761 35.6989C107.58 35.9527 107.489 36.2595 107.489 36.6193C107.489 37.214 107.693 37.6837 108.102 38.0284C108.511 38.3731 109.021 38.5455 109.631 38.5455ZM116.724 33.3409V39H116.031V30.2727H116.707V31.6534H116.776C116.98 31.2027 117.308 30.8409 117.759 30.5682C118.209 30.2955 118.745 30.1591 119.366 30.1591C119.954 30.1591 120.469 30.2841 120.912 30.5341C121.359 30.7841 121.707 31.1402 121.957 31.6023C122.211 32.0606 122.338 32.608 122.338 33.2443V39H121.645V33.2727C121.645 32.5303 121.423 31.9337 120.98 31.483C120.541 31.0284 119.959 30.8011 119.236 30.8011C118.751 30.8011 118.319 30.9072 117.94 31.1193C117.562 31.3314 117.264 31.6288 117.048 32.0114C116.832 32.3902 116.724 32.8333 116.724 33.3409ZM62.9545 49.2727C62.8939 48.5492 62.5985 47.964 62.0682 47.517C61.5417 47.0701 60.8598 46.8466 60.0227 46.8466C59.4583 46.8466 58.9564 46.9508 58.517 47.1591C58.0777 47.3674 57.733 47.6515 57.483 48.0114C57.233 48.3712 57.108 48.7841 57.108 49.25C57.108 49.5492 57.1648 49.8201 57.2784 50.0625C57.3958 50.3011 57.5606 50.5152 57.7727 50.7045C57.9848 50.8902 58.2367 51.053 58.5284 51.1932C58.8201 51.3333 59.142 51.4564 59.4943 51.5625L60.767 51.9375C61.2027 52.0701 61.6042 52.2235 61.9716 52.3977C62.3428 52.572 62.6648 52.7803 62.9375 53.0227C63.214 53.2614 63.428 53.5417 63.5795 53.8636C63.7348 54.1856 63.8125 54.5568 63.8125 54.9773C63.8125 55.5909 63.6534 56.1402 63.3352 56.625C63.0208 57.1098 62.572 57.4924 61.9886 57.7727C61.4091 58.0492 60.7254 58.1875 59.9375 58.1875C59.1875 58.1875 58.5341 58.0606 57.9773 57.8068C57.4242 57.553 56.9867 57.2008 56.6648 56.75C56.3428 56.2955 56.161 55.7727 56.1193 55.1818H56.8466C56.8845 55.6629 57.0379 56.0795 57.3068 56.4318C57.5795 56.7803 57.9413 57.0492 58.392 57.2386C58.8428 57.428 59.358 57.5227 59.9375 57.5227C60.5625 57.5227 61.1136 57.4167 61.5909 57.2045C62.0682 56.9886 62.4413 56.6894 62.7102 56.3068C62.9792 55.9242 63.1136 55.4792 63.1136 54.9716C63.1136 54.5625 63.017 54.2121 62.8239 53.9205C62.6307 53.6288 62.3447 53.3769 61.9659 53.1648C61.5909 52.9527 61.125 52.7633 60.5682 52.5966L59.2102 52.1875C58.3011 51.911 57.6061 51.5341 57.125 51.0568C56.6477 50.5795 56.4091 49.9848 56.4091 49.2727C56.4091 48.6742 56.5682 48.1439 56.8864 47.6818C57.2045 47.2159 57.6364 46.8504 58.1818 46.5852C58.7311 46.3201 59.3504 46.1875 60.0398 46.1875C60.733 46.1875 61.3447 46.322 61.875 46.5909C62.4053 46.8561 62.8258 47.2216 63.1364 47.6875C63.447 48.1496 63.6193 48.678 63.6534 49.2727H62.9545ZM69.6477 58.1818C68.9053 58.1818 68.2519 57.9867 67.6875 57.5966C67.1231 57.2027 66.6818 56.6648 66.3636 55.983C66.0492 55.3011 65.892 54.5284 65.892 53.6648C65.892 52.8011 66.0511 52.0284 66.3693 51.3466C66.6875 50.6648 67.1288 50.1269 67.6932 49.733C68.2576 49.339 68.9072 49.142 69.642 49.142C70.1951 49.142 70.6989 49.2557 71.1534 49.483C71.6117 49.7102 71.9905 50.0265 72.2898 50.4318C72.5928 50.8371 72.786 51.3068 72.8693 51.8409H72.1648C72.0511 51.25 71.767 50.7614 71.3125 50.375C70.8617 49.9848 70.3068 49.7898 69.6477 49.7898C69.0568 49.7898 68.5303 49.9564 68.0682 50.2898C67.6061 50.6193 67.2424 51.0758 66.9773 51.6591C66.7121 52.2386 66.5795 52.9034 66.5795 53.6534C66.5795 54.392 66.7083 55.0549 66.9659 55.642C67.2235 56.2254 67.5833 56.6875 68.0455 57.0284C68.5076 57.3693 69.0417 57.5398 69.6477 57.5398C70.0758 57.5398 70.4659 57.4545 70.8182 57.2841C71.1742 57.1136 71.4716 56.8712 71.7102 56.5568C71.9489 56.2424 72.1061 55.875 72.1818 55.4545H72.8864C72.803 55.9924 72.6136 56.4659 72.3182 56.875C72.0227 57.2841 71.6458 57.6042 71.1875 57.8352C70.7292 58.0663 70.2159 58.1818 69.6477 58.1818ZM78.4943 58.1818C77.7746 58.1818 77.1345 57.9886 76.5739 57.6023C76.0133 57.2121 75.572 56.6761 75.25 55.9943C74.928 55.3125 74.767 54.536 74.767 53.6648C74.767 52.7898 74.928 52.0133 75.25 51.3352C75.572 50.6534 76.0133 50.1174 76.5739 49.7273C77.1345 49.3371 77.7746 49.142 78.4943 49.142C79.214 49.142 79.8542 49.3371 80.4148 49.7273C80.9754 50.1174 81.4167 50.6534 81.7386 51.3352C82.0606 52.017 82.2216 52.7936 82.2216 53.6648C82.2216 54.536 82.0606 55.3125 81.7386 55.9943C81.4167 56.6761 80.9754 57.2121 80.4148 57.6023C79.8542 57.9886 79.214 58.1818 78.4943 58.1818ZM78.4943 57.5398C79.1042 57.5398 79.6364 57.3674 80.0909 57.0227C80.5492 56.678 80.9034 56.2121 81.1534 55.625C81.4072 55.0379 81.5341 54.3845 81.5341 53.6648C81.5341 52.9451 81.4072 52.2936 81.1534 51.7102C80.8996 51.1231 80.5455 50.6572 80.0909 50.3125C79.6364 49.964 79.1042 49.7898 78.4943 49.7898C77.8845 49.7898 77.3523 49.964 76.8977 50.3125C76.4432 50.6572 76.089 51.1231 75.8352 51.7102C75.5814 52.2936 75.4545 52.9451 75.4545 53.6648C75.4545 54.3845 75.5795 55.0379 75.8295 55.625C76.0833 56.2121 76.4375 56.678 76.892 57.0227C77.3504 57.3674 77.8845 57.5398 78.4943 57.5398ZM87.6946 49.2727V49.892H83.8821V49.2727H87.6946ZM85.1719 47.1818H85.8594V55.9375C85.8594 56.2936 85.9276 56.5852 86.0639 56.8125C86.2041 57.036 86.3859 57.2027 86.6094 57.3125C86.8366 57.4186 87.0791 57.4716 87.3366 57.4716C87.4616 57.4716 87.5696 57.4621 87.6605 57.4432C87.7552 57.4242 87.8442 57.3996 87.9276 57.3693L88.098 58C87.992 58.0379 87.8745 58.0701 87.7457 58.0966C87.617 58.1269 87.4654 58.142 87.2912 58.142C86.9276 58.142 86.5829 58.0606 86.2571 57.8977C85.9351 57.7348 85.6738 57.4981 85.473 57.1875C85.2723 56.8769 85.1719 56.5019 85.1719 56.0625V47.1818ZM93.3509 49.2727V49.892H89.5384V49.2727H93.3509ZM90.8281 47.1818H91.5156V55.9375C91.5156 56.2936 91.5838 56.5852 91.7202 56.8125C91.8603 57.036 92.0421 57.2027 92.2656 57.3125C92.4929 57.4186 92.7353 57.4716 92.9929 57.4716C93.1179 57.4716 93.2259 57.4621 93.3168 57.4432C93.4115 57.4242 93.5005 57.3996 93.5838 57.3693L93.7543 58C93.6482 58.0379 93.5308 58.0701 93.402 58.0966C93.2732 58.1269 93.1217 58.142 92.9474 58.142C92.5838 58.142 92.2391 58.0606 91.9134 57.8977C91.5914 57.7348 91.33 57.4981 91.1293 57.1875C90.9285 56.8769 90.8281 56.5019 90.8281 56.0625V47.1818Z" fill="black"/>
<path d="M2.29545 7.72727H7.45455L14.3636 24.5909H14.6364L21.5455 7.72727H26.7045V31H22.6591V15.0114H22.4432L16.0114 30.9318H12.9886L6.55682 14.9773H6.34091V31H2.29545V7.72727Z" fill="#002855"/>
<path d="M40.4773 7.72727H44.6591V24.0909C44.6515 25.5909 44.3333 26.8826 43.7045 27.9659C43.0758 29.0417 42.197 29.8712 41.0682 30.4545C39.947 31.0303 38.6402 31.3182 37.1477 31.3182C35.7841 31.3182 34.5568 31.0758 33.4659 30.5909C32.3826 30.0985 31.5227 29.3712 30.8864 28.4091C30.25 27.447 29.9318 26.25 29.9318 24.8182H34.125C34.1326 25.447 34.2689 25.9886 34.5341 26.4432C34.8068 26.8977 35.1818 27.2462 35.6591 27.4886C36.1364 27.7311 36.6856 27.8523 37.3068 27.8523C37.9811 27.8523 38.553 27.7121 39.0227 27.4318C39.4924 27.1439 39.8485 26.7197 40.0909 26.1591C40.3409 25.5985 40.4697 24.9091 40.4773 24.0909V7.72727Z" fill="#F05A28"/>
<path d="M18.9432 42.125C18.8371 41.1326 18.3902 40.3598 17.6023 39.8068C16.822 39.2538 15.8068 38.9773 14.5568 38.9773C13.678 38.9773 12.9242 39.1098 12.2955 39.375C11.6667 39.6402 11.1856 40 10.8523 40.4545C10.5189 40.9091 10.3485 41.428 10.3409 42.0114C10.3409 42.4962 10.4508 42.9167 10.6705 43.2727C10.8977 43.6288 11.2045 43.9318 11.5909 44.1818C11.9773 44.4242 12.4053 44.6288 12.875 44.7955C13.3447 44.9621 13.8182 45.1023 14.2955 45.2159L16.4773 45.7614C17.3561 45.9659 18.2008 46.2424 19.0114 46.5909C19.8295 46.9394 20.5606 47.3788 21.2045 47.9091C21.8561 48.4394 22.3712 49.0795 22.75 49.8295C23.1288 50.5795 23.3182 51.4583 23.3182 52.4659C23.3182 53.8295 22.9697 55.0303 22.2727 56.0682C21.5758 57.0985 20.5682 57.9053 19.25 58.4886C17.9394 59.0644 16.3523 59.3523 14.4886 59.3523C12.678 59.3523 11.1061 59.072 9.77273 58.5114C8.44697 57.9508 7.40909 57.1326 6.65909 56.0568C5.91667 54.9811 5.51515 53.6705 5.45455 52.125H9.60227C9.66288 52.9356 9.91288 53.6098 10.3523 54.1477C10.7917 54.6856 11.3636 55.0871 12.0682 55.3523C12.7803 55.6174 13.5758 55.75 14.4545 55.75C15.3712 55.75 16.1742 55.6136 16.8636 55.3409C17.5606 55.0606 18.1061 54.6742 18.5 54.1818C18.8939 53.6818 19.0947 53.0985 19.1023 52.4318C19.0947 51.8258 18.9167 51.3258 18.5682 50.9318C18.2197 50.5303 17.7311 50.197 17.1023 49.9318C16.4811 49.6591 15.7538 49.4167 14.9205 49.2045L12.2727 48.5227C10.3561 48.0303 8.84091 47.2841 7.72727 46.2841C6.62121 45.2765 6.06818 43.9394 6.06818 42.2727C6.06818 40.9015 6.43939 39.7008 7.18182 38.6705C7.93182 37.6402 8.95076 36.8409 10.2386 36.2727C11.5265 35.697 12.9848 35.4091 14.6136 35.4091C16.2652 35.4091 17.7121 35.697 18.9545 36.2727C20.2045 36.8409 21.1856 37.6326 21.8977 38.6477C22.6098 39.6553 22.9773 40.8144 23 42.125H18.9432Z" fill="#00B2A9"/>
<path d="M27.9247 46.767V45.027C29.0516 45.027 29.8371 44.7983 30.2812 44.3409C30.732 43.8769 30.9574 43.1245 30.9574 42.0838V39.5483C30.9574 38.428 31.0966 37.5099 31.375 36.794C31.66 36.0781 32.0743 35.5213 32.6179 35.1236C33.1615 34.7259 33.8243 34.4508 34.6065 34.2983C35.3887 34.1392 36.277 34.0597 37.2713 34.0597V36.8239C36.4891 36.8239 35.8892 36.9332 35.4716 37.152C35.054 37.3641 34.7656 37.6922 34.6065 38.1364C34.4541 38.5805 34.3778 39.1473 34.3778 39.8366V43.098C34.3778 43.6084 34.2917 44.0857 34.1193 44.5298C33.947 44.974 33.6321 45.3651 33.1747 45.7031C32.7173 46.0346 32.0644 46.2964 31.2159 46.4886C30.3741 46.6742 29.277 46.767 27.9247 46.767ZM37.2713 59.3253C36.277 59.3253 35.3887 59.2457 34.6065 59.0866C33.8243 58.9342 33.1615 58.6591 32.6179 58.2614C32.0743 57.8636 31.66 57.3068 31.375 56.5909C31.0966 55.875 30.9574 54.9569 30.9574 53.8366V51.3111C30.9574 50.2704 30.732 49.5213 30.2812 49.0639C29.8371 48.5999 29.0516 48.3679 27.9247 48.3679V46.6278C29.277 46.6278 30.3741 46.724 31.2159 46.9162C32.0644 47.1018 32.7173 47.3636 33.1747 47.7017C33.6321 48.0331 33.947 48.4209 34.1193 48.8651C34.2917 49.3092 34.3778 49.7831 34.3778 50.2869V53.5483C34.3778 54.2377 34.4541 54.8045 34.6065 55.2486C34.7656 55.6927 35.054 56.0241 35.4716 56.2429C35.8892 56.4616 36.4891 56.571 37.2713 56.571V59.3253ZM27.9247 48.3679V45.027H31.0767V48.3679H27.9247ZM48.1119 46.6278V48.3679C46.985 48.3679 46.1961 48.5999 45.7454 49.0639C45.3013 49.5213 45.0792 50.2704 45.0792 51.3111V53.8366C45.0792 54.9569 44.9367 55.875 44.6516 56.5909C44.3732 57.3068 43.9622 57.8636 43.4187 58.2614C42.8751 58.6591 42.2122 58.9342 41.43 59.0866C40.6478 59.2457 39.7596 59.3253 38.7653 59.3253V56.571C39.5475 56.571 40.1474 56.4616 40.565 56.2429C40.9826 56.0241 41.2676 55.6927 41.4201 55.2486C41.5792 54.8045 41.6587 54.2377 41.6587 53.5483V50.2869C41.6587 49.7831 41.7449 49.3092 41.9173 48.8651C42.0896 48.4209 42.4045 48.0331 42.8619 47.7017C43.3192 47.3636 43.9689 47.1018 44.8107 46.9162C45.6592 46.724 46.7596 46.6278 48.1119 46.6278ZM38.7653 34.0597C39.7596 34.0597 40.6478 34.1392 41.43 34.2983C42.2122 34.4508 42.8751 34.7259 43.4187 35.1236C43.9622 35.5213 44.3732 36.0781 44.6516 36.794C44.9367 37.5099 45.0792 38.428 45.0792 39.5483V42.0838C45.0792 43.1245 45.3013 43.8769 45.7454 44.3409C46.1961 44.7983 46.985 45.027 48.1119 45.027V46.767C46.7596 46.767 45.6592 46.6742 44.8107 46.4886C43.9689 46.2964 43.3192 46.0346 42.8619 45.7031C42.4045 45.3651 42.0896 44.974 41.9173 44.5298C41.7449 44.0857 41.6587 43.6084 41.6587 43.098V39.8366C41.6587 39.1473 41.5792 38.5805 41.4201 38.1364C41.2676 37.6922 40.9826 37.3641 40.565 37.152C40.1474 36.9332 39.5475 36.8239 38.7653 36.8239V34.0597ZM48.1119 45.027V48.3679H44.9599V45.027H48.1119Z" fill="#64459B"/>
</svg>
