<svg width="50" height="67" viewBox="0 0 50 67" fill="none" xmlns="http://www.w3.org/2000/svg">
<path d="M2.29545 7.72727H7.45455L14.3636 24.5909H14.6364L21.5455 7.72727H26.7045V31H22.6591V15.0114H22.4432L16.0114 30.9318H12.9886L6.55682 14.9773H6.34091V31H2.29545V7.72727Z" fill="#002855"/>
<path d="M40.4773 7.72727H44.6591V24.0909C44.6515 25.5909 44.3333 26.8826 43.7045 27.9659C43.0758 29.0417 42.197 29.8712 41.0682 30.4545C39.947 31.0303 38.6402 31.3182 37.1477 31.3182C35.7841 31.3182 34.5568 31.0758 33.4659 30.5909C32.3826 30.0985 31.5227 29.3712 30.8864 28.4091C30.25 27.447 29.9318 26.25 29.9318 24.8182H34.125C34.1326 25.447 34.2689 25.9886 34.5341 26.4432C34.8068 26.8977 35.1818 27.2462 35.6591 27.4886C36.1364 27.7311 36.6856 27.8523 37.3068 27.8523C37.9811 27.8523 38.553 27.7121 39.0227 27.4318C39.4924 27.1439 39.8485 26.7197 40.0909 26.1591C40.3409 25.5985 40.4697 24.9091 40.4773 24.0909V7.72727Z" fill="#F05A28"/>
<path d="M18.9432 42.125C18.8371 41.1326 18.3902 40.3598 17.6023 39.8068C16.822 39.2538 15.8068 38.9773 14.5568 38.9773C13.678 38.9773 12.9242 39.1098 12.2955 39.375C11.6667 39.6402 11.1856 40 10.8523 40.4545C10.5189 40.9091 10.3485 41.428 10.3409 42.0114C10.3409 42.4962 10.4508 42.9167 10.6705 43.2727C10.8977 43.6288 11.2045 43.9318 11.5909 44.1818C11.9773 44.4242 12.4053 44.6288 12.875 44.7955C13.3447 44.9621 13.8182 45.1023 14.2955 45.2159L16.4773 45.7614C17.3561 45.9659 18.2008 46.2424 19.0114 46.5909C19.8295 46.9394 20.5606 47.3788 21.2045 47.9091C21.8561 48.4394 22.3712 49.0795 22.75 49.8295C23.1288 50.5795 23.3182 51.4583 23.3182 52.4659C23.3182 53.8295 22.9697 55.0303 22.2727 56.0682C21.5758 57.0985 20.5682 57.9053 19.25 58.4886C17.9394 59.0644 16.3523 59.3523 14.4886 59.3523C12.678 59.3523 11.1061 59.072 9.77273 58.5114C8.44697 57.9508 7.40909 57.1326 6.65909 56.0568C5.91667 54.9811 5.51515 53.6705 5.45455 52.125H9.60227C9.66288 52.9356 9.91288 53.6098 10.3523 54.1477C10.7917 54.6856 11.3636 55.0871 12.0682 55.3523C12.7803 55.6174 13.5758 55.75 14.4545 55.75C15.3712 55.75 16.1742 55.6136 16.8636 55.3409C17.5606 55.0606 18.1061 54.6742 18.5 54.1818C18.8939 53.6818 19.0947 53.0985 19.1023 52.4318C19.0947 51.8258 18.9167 51.3258 18.5682 50.9318C18.2197 50.5303 17.7311 50.197 17.1023 49.9318C16.4811 49.6591 15.7538 49.4167 14.9205 49.2045L12.2727 48.5227C10.3561 48.0303 8.84091 47.2841 7.72727 46.2841C6.62121 45.2765 6.06818 43.9394 6.06818 42.2727C6.06818 40.9015 6.43939 39.7008 7.18182 38.6705C7.93182 37.6402 8.95076 36.8409 10.2386 36.2727C11.5265 35.697 12.9848 35.4091 14.6136 35.4091C16.2652 35.4091 17.7121 35.697 18.9545 36.2727C20.2045 36.8409 21.1856 37.6326 21.8977 38.6477C22.6098 39.6553 22.9773 40.8144 23 42.125H18.9432Z" fill="#00B2A9"/>
<path d="M27.9247 46.767V45.027C29.0516 45.027 29.8371 44.7983 30.2812 44.3409C30.732 43.8769 30.9574 43.1245 30.9574 42.0838V39.5483C30.9574 38.428 31.0966 37.5099 31.375 36.794C31.66 36.0781 32.0743 35.5213 32.6179 35.1236C33.1615 34.7259 33.8243 34.4508 34.6065 34.2983C35.3887 34.1392 36.277 34.0597 37.2713 34.0597V36.8239C36.4891 36.8239 35.8892 36.9332 35.4716 37.152C35.054 37.3641 34.7656 37.6922 34.6065 38.1364C34.4541 38.5805 34.3778 39.1473 34.3778 39.8366V43.098C34.3778 43.6084 34.2917 44.0857 34.1193 44.5298C33.947 44.974 33.6321 45.3651 33.1747 45.7031C32.7173 46.0346 32.0644 46.2964 31.2159 46.4886C30.3741 46.6742 29.277 46.767 27.9247 46.767ZM37.2713 59.3253C36.277 59.3253 35.3887 59.2457 34.6065 59.0866C33.8243 58.9342 33.1615 58.6591 32.6179 58.2614C32.0743 57.8636 31.66 57.3068 31.375 56.5909C31.0966 55.875 30.9574 54.9569 30.9574 53.8366V51.3111C30.9574 50.2704 30.732 49.5213 30.2812 49.0639C29.8371 48.5999 29.0516 48.3679 27.9247 48.3679V46.6278C29.277 46.6278 30.3741 46.724 31.2159 46.9162C32.0644 47.1018 32.7173 47.3636 33.1747 47.7017C33.6321 48.0331 33.947 48.4209 34.1193 48.8651C34.2917 49.3092 34.3778 49.7831 34.3778 50.2869V53.5483C34.3778 54.2377 34.4541 54.8045 34.6065 55.2486C34.7656 55.6927 35.054 56.0241 35.4716 56.2429C35.8892 56.4616 36.4891 56.571 37.2713 56.571V59.3253ZM27.9247 48.3679V45.027H31.0767V48.3679H27.9247ZM48.1119 46.6278V48.3679C46.985 48.3679 46.1961 48.5999 45.7454 49.0639C45.3013 49.5213 45.0792 50.2704 45.0792 51.3111V53.8366C45.0792 54.9569 44.9367 55.875 44.6516 56.5909C44.3732 57.3068 43.9622 57.8636 43.4187 58.2614C42.8751 58.6591 42.2122 58.9342 41.43 59.0866C40.6478 59.2457 39.7596 59.3253 38.7653 59.3253V56.571C39.5475 56.571 40.1474 56.4616 40.565 56.2429C40.9826 56.0241 41.2676 55.6927 41.4201 55.2486C41.5792 54.8045 41.6587 54.2377 41.6587 53.5483V50.2869C41.6587 49.7831 41.7449 49.3092 41.9173 48.8651C42.0896 48.4209 42.4045 48.0331 42.8619 47.7017C43.3192 47.3636 43.9689 47.1018 44.8107 46.9162C45.6592 46.724 46.7596 46.6278 48.1119 46.6278ZM38.7653 34.0597C39.7596 34.0597 40.6478 34.1392 41.43 34.2983C42.2122 34.4508 42.8751 34.7259 43.4187 35.1236C43.9622 35.5213 44.3732 36.0781 44.6516 36.794C44.9367 37.5099 45.0792 38.428 45.0792 39.5483V42.0838C45.0792 43.1245 45.3013 43.8769 45.7454 44.3409C46.1961 44.7983 46.985 45.027 48.1119 45.027V46.767C46.7596 46.767 45.6592 46.6742 44.8107 46.4886C43.9689 46.2964 43.3192 46.0346 42.8619 45.7031C42.4045 45.3651 42.0896 44.974 41.9173 44.5298C41.7449 44.0857 41.6587 43.6084 41.6587 43.098V39.8366C41.6587 39.1473 41.5792 38.5805 41.4201 38.1364C41.2676 37.6922 40.9826 37.3641 40.565 37.152C40.1474 36.9332 39.5475 36.8239 38.7653 36.8239V34.0597ZM48.1119 45.027V48.3679H44.9599V45.027H48.1119Z" fill="#64459B"/>
</svg>
