<?xml version="1.0" encoding="UTF-8" standalone="no"?>
<svg
   version="1.1"
   width="1035.661"
   height="1191.041"
   id="svg15"
   sodipodi:docname="mjs.svg"
   inkscape:version="1.4.2 (f4327f4, 2025-05-13)"
   inkscape:export-filename="mjs.svg"
   inkscape:export-xdpi="96"
   inkscape:export-ydpi="96"
   xmlns:inkscape="http://www.inkscape.org/namespaces/inkscape"
   xmlns:sodipodi="http://sodipodi.sourceforge.net/DTD/sodipodi-0.dtd"
   xmlns="http://www.w3.org/2000/svg"
   xmlns:svg="http://www.w3.org/2000/svg">
  <sodipodi:namedview
     id="namedview1"
     pagecolor="#ffffff"
     bordercolor="#eeeeee"
     borderopacity="1"
     inkscape:showpageshadow="0"
     inkscape:pageopacity="0"
     inkscape:pagecheckerboard="0"
     inkscape:deskcolor="#505050"
     inkscape:export-bgcolor="#ffffffff"
     inkscape:zoom="0.4270262"
     inkscape:cx="478.89333"
     inkscape:cy="457.81734"
     inkscape:window-width="1920"
     inkscape:window-height="991"
     inkscape:window-x="1911"
     inkscape:window-y="-9"
     inkscape:window-maximized="1"
     inkscape:current-layer="svg15" />
  <defs
     id="defs15" />
  <path
     d="m 524.94852,2.0736421 c 2.87905,1.608691 5.69877,3.293969 8.51514,5.01001 2.16001,1.288013 4.32017,2.575767 6.48047,3.8632809 1.09747,0.659517 2.19495,1.319033 3.32568,1.998535 4.97859,2.982374 9.99138,5.905048 15.00635,8.825684 1.45551,0.850419 1.45551,0.850419 2.94043,1.718018 5.51295,3.216189 11.04125,6.403893 16.58691,9.563232 0.61737,0.351844 1.23474,0.703687 1.87082,1.066193 2.98927,1.702768 5.9803,3.402252 8.97391,5.097381 5.54945,3.154243 11.04029,6.372065 16.46387,9.73877 6.01894,3.732241 12.1507,7.209951 18.35156,10.628901 10.86033,6.03542 21.57136,12.29102 32.24854,18.64307 5.00973,2.97211 10.0349,5.91767 15.06396,8.85693 1.00241,0.58588 2.00481,1.17176 3.0376,1.77539 6.85766,3.9931 13.75933,7.89728 20.74267,11.666753 3.48921,1.90285 6.81406,3.91245 10.09082,6.16333 5.48391,3.71235 11.28013,6.8295 17.09436,9.98309 3.24389,1.76067 6.47951,3.53636 9.71424,5.31378 0.62721,0.34461 1.25442,0.68921 1.90063,1.04425 6.84248,3.77057 13.50675,7.78894 20.16968,11.86591 10.87233,6.5389 21.89756,12.78841 33.00732,18.91479 5.89829,3.27237 11.619,6.72079 17.28614,10.37745 4.47324,2.82251 9.0871,5.38412 13.70654,7.95776 2.02126,1.13466 4.04208,2.27009 6.0625,3.40625 0.99773,0.56074 1.99547,1.12148 3.02344,1.69922 9.76317,5.50976 19.45817,11.13629 29.03905,16.95703 6.7363,4.09092 13.6134,7.91889 20.5,11.75 7.4644,4.15303 14.8333,8.36668 22.0664,12.91016 6.0643,3.71588 12.275,7.18014 18.457,10.69531 6.235,3.54544 12.4515,7.12254 18.6641,10.70703 1.0974,0.63309 2.1948,1.26618 3.3254,1.91846 8.2328,4.75468 16.4442,9.54535 24.6487,14.34863 5.5228,3.22654 11.0626,6.42043 16.6236,9.58057 0.6273,0.35682 1.2546,0.71364 1.901,1.08128 3.0517,1.73523 6.1055,3.46669 9.1629,5.19191 4.811,2.73073 9.56305,5.46314 14.13145,8.58618 5.9629,4.06891 12.3765,7.31112 18.75,10.68164 0.9423,0.50467 1.8846,1.00934 2.8554,1.5293 0.8487,0.44883 1.6974,0.89767 2.5718,1.36011 2.1699,1.31814 3.6061,2.39645 5.2173,4.34692 0.375,1.93212 0.375,1.93212 0.3749,4.17033 0.01,0.85573 0.014,1.71146 0.022,2.59313 -0.01,0.94235 -0.015,1.8847 -0.022,2.85561 0.01,1.5052 0.01,1.5052 0.012,3.04082 0.01,3.39565 0,6.79089 -0.013,10.18653 0,2.44575 0.01,4.89149 0.012,7.33724 0.01,5.33462 0.01,10.66913 0,16.00374 -0.013,7.93262 -0.01,15.86517 0,23.7978 0.012,14.16561 0.01,28.33117 -0.01,42.49678 -0.01,12.39695 -0.015,24.79388 -0.014,37.19083 1e-4,1.23197 1e-4,1.23197 3e-4,2.48884 3e-4,3.33374 7e-4,6.66748 0,10.00122 0,31.29424 -0.01,62.58845 -0.03,93.88269 -0.018,27.82019 -0.024,55.64035 -0.019,83.46054 3e-4,1.7861 7e-4,3.5722 10e-4,5.3583 3e-4,1.3245 3e-4,1.3245 5e-4,2.67576 9e-4,4.44465 0,8.8893 0,13.33395 2e-4,1.31521 2e-4,1.31521 5e-4,2.65699 0,23.22601 0,46.45201 -0.01,69.67801 -9e-4,2.4984 0,4.9968 0,7.4952 -6e-4,1.65746 0,3.31493 0,4.9724 0,11.5685 0,23.13701 0,34.70552 0,14.90701 0,29.81399 -0.017,44.72099 -0.01,7.88875 -0.011,15.77745 -0.01,23.6662 0,5.8794 0,11.75875 -0.015,17.63814 0,2.38691 0,4.77383 0,7.16073 0.01,3.22903 0,6.45779 -0.012,9.6868 0,0.94001 0.01,1.88002 0.013,2.84852 -0.01,0.85823 -0.011,1.71647 -0.016,2.60071 -3e-4,0.73868 -7e-4,1.47736 -10e-4,2.23842 -0.2943,2.41412 -0.9784,3.99164 -2.2508,6.05726 -2.3088,1.60889 -2.3088,1.60889 -5.2227,3.17969 -1.0841,0.59232 -2.1682,1.18465 -3.2851,1.79492 -1.1849,0.63349 -2.3698,1.26695 -3.5547,1.90039 -1.2155,0.66085 -2.4304,1.32298 -3.6445,1.98633 -2.5108,1.37069 -5.0242,2.73647 -7.5396,4.09863 -5.777,3.13355 -11.51602,6.33465 -17.25345,9.54004 -1.4909,0.8254 -1.4909,0.8254 -3.012,1.66748 -6.6562,3.71133 -13.0851,7.70214 -19.488,11.83252 -11.9888,7.54566 -24.4459,14.28554 -36.8364,21.13926 -17.482,9.6747 -34.7566,19.6426 -51.7925,30.0834 -10.8805,6.6395 -22.0559,12.7481 -33.20738,18.91649 -17.482,9.6747 -34.75665,19.6427 -51.79262,30.0835 -10.873,6.635 -22.04048,12.7394 -33.18473,18.9029 -15.54191,8.6013 -31.06376,17.2573 -46.10823,26.7103 -11.43477,7.1695 -23.28367,13.6109 -35.07813,20.1641 -17.96447,9.9815 -35.89733,20.0153 -53.3125,30.9375 -9.24255,5.733 -18.81713,10.9061 -28.3208,16.1895 -5.5235,3.0729 -11.03887,6.1604 -16.5542,9.248 -1.56295,0.8735 -1.56295,0.8735 -3.15747,1.7646 -4.43551,2.4818 -8.86547,4.9705 -13.2644,7.5167 -0.66105,0.3823 -1.3221,0.7647 -2.00318,1.1586 -1.67212,0.9713 -3.34052,1.949 -5.00854,2.9273 -2.37531,1.2578 -2.37531,1.2578 -4.37531,1.2578 0,0.66 0,1.32 0,2 -1.43666,0.8005 -1.43666,0.8005 -2.90234,1.6172 -8.28876,4.6331 -16.51746,9.3547 -24.68726,14.1948 -5.35575,3.1717 -8.07904,4.738 -14.4104,4.188 -2.81688,-1.1631 -5.3108,-2.7379 -7.875,-4.375 -1.51281,-0.9274 -3.02584,-1.8545 -4.53906,-2.7812 -0.76474,-0.4757 -1.52948,-0.9514 -2.31739,-1.4415 -3.47401,-2.1475 -6.99471,-4.2129 -10.51855,-6.2773 -0.69521,-0.4094 -1.39042,-0.8189 -2.10669,-1.2407 -5.54197,-3.2585 -11.1195,-6.4526 -16.70581,-9.6343 -7.60793,-4.3334 -15.18931,-8.7097 -22.75,-13.125 -1.00321,-0.5856 -2.00643,-1.1713 -3.04004,-1.7747 -5.02213,-2.9338 -10.04026,-5.8743 -15.05371,-8.823 -11.76443,-6.9072 -23.60433,-13.654 -35.57153,-20.2028 -6.58102,-3.6187 -12.9991,-7.4312 -19.37696,-11.3963 -4.72664,-2.8977 -9.55385,-5.6032 -14.39526,-8.3032 -6.76322,-3.798 -13.51058,-7.6145 -20.1875,-11.5625 -0.66693,-0.3941 -1.33386,-0.7881 -2.021,-1.1941 -1.40867,-0.8328 -2.81719,-1.6659 -4.22558,-2.4993 -14.53866,-8.595 -29.1474,-17.0322 -43.96778,-25.1316 -6.01342,-3.3047 -11.83703,-6.7829 -17.59887,-10.5073 -4.80492,-3.0239 -9.78,-5.738 -14.74927,-8.4802 -13.16225,-7.319 -26.25145,-14.7453 -39.125,-22.5625 -6.69735,-4.0652 -13.53034,-7.8768 -20.375,-11.6875 -13.54861,-7.5447 -13.54861,-7.5447 -20.0625,-11.49999 -16.08976,-9.7685 -32.40173,-19.1389 -48.91309,-28.1743 -6.58174,-3.6191 -13.00058,-7.432 -19.37915,-11.3974 -4.72664,-2.8977 -9.553845,-5.60325 -14.395259,-8.30326 -6.76322,-3.79798 -13.51058,-7.61452 -20.1875,-11.5625 -0.66693,-0.39405 -1.33386,-0.7881 -2.021,-1.19409 -1.40867,-0.83285 -2.81719,-1.66595 -4.22558,-2.49927 -14.516,-8.58167 -29.10896,-16.99746 -43.87988,-25.13159 -3.15055,-1.73672 -6.29526,-3.48325 -9.43604,-5.23755 -1.11955,-0.62407 -2.2391,-1.24813 -3.39258,-1.89111 -1.08217,-0.61472 -2.1643304,-1.22945 -3.2792894,-1.8628 -0.9755,-0.55115 -1.951,-1.10231 -2.9560603,-1.67016 -2.74218,-1.82182 -4.04825005,-3.48246 -4.98903005,-6.65927 -0.55152,-4.19954 -0.52116,-8.35195 -0.51167,-12.58324 -0.002,-0.98432 -0.004,-1.96864 -0.005,-2.98279 -0.005,-3.31837 -0.002,-6.6367 2.3e-4,-9.95508 -0.002,-2.39512 -0.004,-4.79024 -0.007,-7.18536 -0.005,-5.21789 -0.007,-10.43577 -0.005,-15.65367 0.002,-7.75926 -0.003,-15.5185 -0.008,-23.27776 -0.01,-14.66371 -0.0125,-29.32741 -0.0131,-43.99112 -4.6e-4,-11.32276 -0.002,-22.64551 -0.006,-33.96826 -9e-4,-3.25754 -0.002,-6.51507 -0.003,-9.77261 -2.2e-4,-0.8098 -4.4e-4,-1.6196 -6.7e-4,-2.45393 -0.006,-22.78266 -0.0101,-45.56532 -0.01,-68.34798 2e-5,-0.85921 3e-5,-1.71842 5e-5,-2.60367 8e-5,-4.35497 1.8e-4,-8.70995 2.8e-4,-13.06493 2e-5,-0.86493 4e-5,-1.72987 6e-5,-2.62102 4e-5,-1.74911 8e-5,-3.49822 1.3e-4,-5.24734 6.1e-4,-27.21636 -0.007,-54.43271 -0.0206,-81.64906 -0.0154,-30.56712 -0.024,-61.13422 -0.023,-91.70134 7e-5,-3.25847 1.2e-4,-6.51695 1.5e-4,-9.77543 10e-6,-0.80234 2e-5,-1.60468 4e-5,-2.43133 3e-5,-12.92004 -0.006,-25.84007 -0.015,-38.76011 -0.008,-12.98161 -0.01,-25.96322 -0.003,-38.94483 0.004,-7.71462 0.002,-15.4292 -0.008,-23.14381 -0.007,-5.7568 -0.003,-11.51355 0.005,-17.27034 0.002,-2.33174 -3.2e-4,-4.66349 -0.006,-6.99523 -0.007,-3.16419 -0.002,-6.32813 0.007,-9.49231 -0.005,-0.90968 -0.01,-1.81936 -0.015,-2.75661 0.0473,-8.4571 0.98722,-15.06427 7.26395035,-21.2875 2.812499,-1.91406 2.812499,-1.91406 5.9999994,-3.625 1.23743,-0.67756 2.47438,-1.35601 3.71094,-2.03516 0.67772,-0.36754 1.35545,-0.73508 2.05371,-1.11377 4.32048,-2.36975 8.5855,-4.83777 12.86035,-7.28857 0.90798,-0.51853 1.81597,-1.03705 2.75146,-1.57129 4.76491,-2.72157 9.51674,-5.46251 14.24854,-8.24121 3.48118,-2.04282 6.98826,-4.01406 10.54297,-5.92578 5.58855,-3.0384 11.05959,-6.24932 16.51953,-9.51172 7.67836,-4.56232 15.39702,-9.02959 23.195314,-13.38281 15.805315,-8.82574 31.492075,-17.87731 46.984375,-27.24219 8.72138,-5.27015 17.47421,-10.43141 26.40503,-15.33936 7.13867,-3.92756 14.18194,-8.01207 21.22387,-12.10986 2.85909,-1.66308 5.72464,-3.3133 8.60157,-4.94531 0.63131,-0.3582 1.26263,-0.7164 1.91308,-1.08545 1.6686,-0.94464 3.33863,-1.88674 5.00879,-2.82861 3.07489,-1.80947 6.01312,-3.77435 8.98047,-5.75391 1.50762,-0.85702 3.02891,-1.69039 4.5625,-2.5 8.39862,-4.52057 16.64395,-9.31248 24.91699,-14.05762 2.25628,-1.29117 4.51598,-2.57593 6.77832,-3.85644 0.94493,-0.53585 0.94493,-0.53585 1.90894,-1.08252 1.64031,-0.9295 3.28166,-1.85717 4.92309,-2.78467 2.03149,-1.19981 4.02596,-2.46356 5.98829,-3.77344 2.53295,-1.68638 5.04555,-3.15422 7.73437,-4.57031 4.78264,-2.5718 9.45903,-5.2876 14.125,-8.0625 6.18348,-3.67062 12.43286,-7.18996 18.75,-10.625 9.86729,-5.37896 19.52536,-11.08003 29.18115,-16.82764 5.9498,-3.533883 11.91369,-7.043753 17.88135,-10.547363 0.62412,-0.36646 1.24824,-0.73291 1.89127,-1.11047 7.97647,-4.67934 15.98737,-9.28396 24.09359,-13.73572 6.15174,-3.38165 12.22339,-6.89361 18.28955,-10.42603 5.08949,-2.96011 10.20744,-5.86211 15.35059,-8.72778 4.67244,-2.60803 9.27117,-5.29176 13.8125,-8.124995 5.46837,-3.405974 11.02434,-6.629143 16.625,-9.8125 14.59374,-8.295612 29.13431,-16.689337 43.5,-25.375 5.80788,-3.507525 11.69227,-6.8239009 17.6875,-9.9999999 0.87527,-0.498867 1.75055,-0.997734 2.65234,-1.511719 0.85723,-0.470508 1.71446,-0.941015 2.59766,-1.425781 0.74766,-0.421523 1.49531,-0.843047 2.26563,-1.27734394 4.5032,-1.423184 7.7816,-0.612858 11.90673,1.39233394 z M 508.83866,110.77115 c -0.65879,0.3466 -1.31758,0.69319 -1.99634,1.05029 -8.4916,4.55629 -16.76104,9.53827 -25.05273,14.44702 -7.90243,4.67695 -15.85521,9.23993 -23.88843,13.69019 -9.8733,5.47738 -19.59248,11.18454 -29.28516,16.97461 -7.50432,4.46891 -15.07503,8.79278 -22.71484,13.02539 -8.3944,4.65181 -16.66766,9.46316 -24.875,14.4375 -9.22245,5.58958 -18.55176,10.9343 -27.98437,16.16016 -7.75454,4.31237 -15.39858,8.78957 -23.01563,13.33984 -8.59617,5.13422 -17.24314,10.14485 -26,15 -8.79657,4.87777 -17.48806,9.90759 -26.125,15.0625 -9.11095,5.43638 -18.27654,10.74738 -27.53174,15.93384 -7.83831,4.40508 -15.59615,8.94105 -23.34326,13.50366 -8.6236,5.07822 -17.27119,10.10381 -26,15 -9.2424,5.18556 -18.39299,10.51796 -27.52502,15.89432 -9.20314,5.41654 -18.44553,10.75849 -27.72498,16.04318 -13.68989,7.803 -27.31337,15.66451 -40.6875,24 -0.82444,0.50886 -1.64887,1.01771 -2.49829,1.54199 -1.1436,0.71978 -1.1436,0.71978 -2.3103,1.4541 -1.015985,0.63507 -1.015985,0.63507 -2.052485,1.28296 -1.98413,1.34979 -1.98413,1.34979 -3.701424,4.28345 -0.19576,2.68196 -0.27338,5.26002 -0.26006,7.94243 -0.004,0.82221 -0.008,1.64442 -0.0115,2.49155 -0.0104,2.77901 -0.006,5.55782 -0.003,8.33685 -0.004,2.00297 -0.01,4.00593 -0.0159,6.0089 -0.0142,5.52281 -0.0159,11.04557 -0.0154,16.56841 -0.002,5.949 -0.0147,11.89798 -0.0262,17.84697 -0.0217,12.33868 -0.0303,24.67733 -0.035,37.01602 -2.7e-4,0.67089 -5.3e-4,1.34178 -8e-4,2.033 -2.6e-4,0.67221 -5.2e-4,1.34443 -7.8e-4,2.03701 -0.003,7.44344 -0.01,14.88688 -0.0162,22.33032 -0.0197,22.47455 -0.0361,44.94909 -0.0389,67.42366 -1e-4,0.71912 -1.9e-4,1.43824 -2.9e-4,2.17915 -3.8e-4,2.91438 -7.4e-4,5.82877 -0.001,8.74316 -2.7e-4,2.19363 -5.5e-4,4.38727 -8.3e-4,6.5809 -9e-5,0.72486 -1.7e-4,1.44972 -2.6e-4,2.19655 -0.003,22.77859 -0.025,45.55711 -0.0613,68.33568 -0.0407,25.57897 -0.0644,51.15789 -0.0647,76.7369 -1e-4,2.72655 -2.7e-4,5.45309 -4.8e-4,8.17964 -5e-5,0.67136 -9e-5,1.34273 -1.4e-4,2.03444 -0.001,10.81358 -0.0185,21.62707 -0.0417,32.44062 -0.0228,10.86467 -0.0267,21.72921 -0.0125,32.59389 0.007,5.88832 0.006,11.77635 -0.0164,17.66464 -0.0205,5.38695 -0.0181,10.77338 0.003,16.16033 0.004,1.95223 -0.001,3.90449 -0.0157,5.85667 -0.018,2.64809 -0.005,5.29433 0.0149,7.94236 -0.0126,0.76309 -0.0251,1.52619 -0.0381,2.3124 0.0959,5.79032 1.69066,8.09342 5.658904,12.00755 2.851675,2.05124 2.851675,2.05124 6.015625,3.73438 0.56811,0.31939 1.13622,0.63879 1.72155,0.96786 1.83171,1.02693 3.67207,2.03715 5.51282,3.04776 1.27973,0.71462 2.5587,1.43061 3.83691,2.14795 2.51298,1.40966 5.02842,2.81472 7.5459,4.21631 4.07325,2.28116 8.10409,4.62582 12.11719,7.01074 1.30585,0.77238 2.61184,1.54451 3.91797,2.31641 0.67595,0.39977 1.3519,0.79954 2.04834,1.21142 12.1969,7.19505 24.41823,14.34552 36.78686,21.2417 4.13053,2.31186 8.20131,4.7102 12.24683,7.16797 7.0497,4.27815 14.20785,8.3601 21.375,12.4375 9.83436,5.59556 19.62427,11.25996 29.375,17 10.30311,6.06447 20.65189,12.04204 31.04129,17.9574 7.49738,4.26913 14.96722,8.57696 22.39035,12.97376 5.24185,3.0989 10.52498,6.1213 15.81836,9.1313 8.51998,4.8478 16.98665,9.7831 25.4375,14.75 10.3038,6.0559 20.63536,12.0601 30.99609,18.01829 8.19529,4.7189 16.35296,9.4994 24.50391,14.2942 9.63698,5.6688 19.32413,11.2376 29.07422,16.7102 7.26401,4.0873 14.44142,8.3083 21.60351,12.5711 8.24613,4.8948 16.5717,9.6458 24.90653,14.3871 6.66095,3.7905 13.30495,7.5988 19.85324,11.5816 5.4219,3.2734 10.873,6.4878 16.375,9.625 0.74266,0.4343 1.48532,0.8685 2.25049,1.3159 4.40286,2.4822 8.07862,4.1182 13.24951,4.1841 3.27037,-1.0166 3.27037,-1.0166 6.4375,-2.8125 0.6036,-0.3184 1.20721,-0.6368 1.8291,-0.9648 5.12305,-2.7576 10.03613,-5.8407 14.9375,-8.9705 12.41894,-7.8922 25.33276,-15.0036 38.11621,-22.2834 1.6641,-0.9479 3.32816,-1.8958 4.99219,-2.8438 0.82371,-0.4689 1.64742,-0.9378 2.49609,-1.4209 8.30235,-4.7401 16.536,-9.5964 24.77518,-14.445 8.04687,-4.7327 16.13068,-9.3813 24.31345,-13.876 5.44996,-2.9995 10.81646,-6.1239 16.16845,-9.2942 6.43064,-3.8053 12.89761,-7.5459 19.37183,-11.27639 1.10158,-0.6348 2.20317,-1.2696 3.33813,-1.9236 2.26609,-1.3054 4.53228,-2.6107 6.79859,-3.9158 5.6226,-3.2384 11.24298,-6.4807 16.86328,-9.7231 1.08982,-0.6287 2.17964,-1.2573 3.30249,-1.905 7.00247,-4.0401 14.00103,-8.0869 20.99561,-12.1407 4.53524,-2.6274 9.07422,-5.2483 13.61596,-7.8645 12.91801,-7.4415 25.8151,-14.9137 38.63721,-22.51945 9.76562,-5.79264 19.6065,-11.43506 29.50195,-17.00317 5.70484,-3.21541 11.37754,-6.47548 17.00928,-9.81714 6.57615,-3.90083 13.21295,-7.68539 19.87505,-11.4375 16.28838,-9.17771 32.42658,-18.60581 48.55048,-28.0686 9.0349,-5.30203 18.0799,-10.58642 27.1358,-15.85254 2.649,-1.54244 5.2943,-3.0911 7.9387,-4.64136 0.9199,-0.53448 1.8398,-1.06896 2.7876,-1.61963 0.8912,-0.52384 1.7824,-1.04768 2.7007,-1.5874 0.7957,-0.46511 1.5915,-0.93022 2.4114,-1.40943 3.3046,-2.17683 4.8346,-3.5865 6.1003,-7.38354 0.1013,-2.61695 0.1458,-5.20751 0.1443,-7.82472 0.01,-1.21425 0.01,-1.21425 0.01,-2.45302 0.01,-2.73573 0.014,-5.47141 0.017,-8.20715 0.01,-1.97196 0.012,-3.94391 0.019,-5.91587 0.017,-5.43719 0.029,-10.87438 0.039,-16.3116 0.012,-5.85703 0.03,-11.71405 0.047,-17.57107 0.032,-11.48288 0.059,-22.96577 0.084,-34.44867 0.02,-9.33242 0.042,-18.66485 0.064,-27.99727 0.01,-2.68455 0.013,-5.3691 0.02,-8.05365 0,-0.66736 0,-1.33472 0,-2.0223 0.045,-18.77876 0.089,-37.55753 0.1275,-56.3363 0,-0.70836 0,-1.41673 0,-2.14656 0.01,-3.59042 0.015,-7.18085 0.022,-10.77127 0,-0.71309 0,-1.42618 0,-2.16088 0,-1.44204 0.01,-2.88409 0.01,-4.32613 0.046,-22.42952 0.1009,-44.85901 0.1616,-67.2885 0.068,-25.19114 0.1295,-50.38229 0.1812,-75.57347 0.01,-2.68644 0.011,-5.37287 0.017,-8.05931 0,-0.99222 0,-0.99222 0,-2.00449 0.021,-9.98637 0.047,-19.9727 0.076,-29.95905 0.033,-11.36035 0.059,-22.72069 0.076,-34.08108 0.01,-5.79747 0.021,-11.5949 0.042,-17.39234 0.019,-5.30738 0.029,-10.61469 0.031,-15.9221 0,-1.91998 0.01,-3.83996 0.018,-5.75993 0.013,-2.61125 0.013,-5.22222 0.01,-7.8335 0.01,-0.74398 0.013,-1.48796 0.02,-2.25449 -0.024,-5.19238 -0.4603,-10.41527 -2.2532,-15.32528 -2.2008,-2.0322 -3.714,-3.17741 -6.2617,-4.55078 -0.624,-0.36741 -1.2479,-0.73482 -1.8908,-1.11336 -1.299,-0.76167 -2.6053,-1.51116 -3.9182,-2.24852 -1.8176,-1.02439 -3.6077,-2.08309 -5.3927,-3.16302 -3.4321,-2.06805 -6.8867,-4.09504 -10.3491,-6.11182 -0.618,-0.36145 -1.236,-0.7229 -1.8728,-1.09531 -9.7613,-5.70893 -19.601,-11.26682 -29.4874,-16.75674 -7.2204,-4.02248 -14.3202,-8.21214 -21.3857,-12.49951 -6.12668,-3.70507 -12.32518,-7.26552 -18.56658,-10.77344 -8.5247,-4.79112 -17.02575,-9.62028 -25.50005,-14.5 -1.04172,-0.59788 -2.08345,-1.19577 -3.15674,-1.81177 -5.27823,-3.04378 -10.50098,-6.15424 -15.67529,-9.37182 -6.41938,-3.97306 -12.98222,-7.63414 -19.60547,-11.25391 -8.1107,-4.4595 -16.15596,-8.99696 -24.0625,-13.8125 -7.32627,-4.46185 -14.7514,-8.70936 -22.25,-12.875 -10.71318,-5.95431 -21.27816,-12.12686 -31.81104,-18.39307 -12.60377,-7.47741 -25.25518,-14.86183 -38.09936,-21.91894 -6.81496,-3.76361 -13.49846,-7.73887 -20.18726,-11.72119 -6.66624,-3.95808 -13.39033,-7.79999 -20.15234,-11.5918 -7.15486,-4.01363 -14.23774,-8.1172 -21.25,-12.375 -8.40714,-5.10042 -16.95135,-9.92357 -25.54614,-14.69971 -7.43272,-4.13834 -14.80181,-8.37406 -22.14136,-12.67529 -0.99483,-0.5808 -1.98967,-1.16161 -3.01465,-1.76001 -4.40974,-2.57456 -8.81285,-5.15869 -13.20019,-7.77124 -1.4072,-0.82352 -2.81473,-1.64648 -4.22266,-2.46875 -0.60401,-0.36714 -1.20801,-0.73428 -1.83032,-1.11255 -6.98682,-4.0365 -12.61765,-4.54672 -19.85718,-0.69995 z"
     fill="#182B48"
     id="path1"
     style="fill:#183e7b;fill-opacity:1"
     inkscape:export-filename="mjs.svg"
     inkscape:export-xdpi="96"
     inkscape:export-ydpi="96" />
  <path
     d="m 405.52616,231.89615 2.63672,0.83984 c 19.4592,6.79976 36.63342,23.33447 46.36328,41.16016 8.38189,17.96493 9.04003,43.17058 3,62 -3.70212,9.43088 -8.71499,16.93137 -16,24 l -2.30469,2.29687 c -10.16169,9.66194 -22.13774,18.53555 -36.63281,18.76563 -8.80309,-1.68454 -17.79982,-6.76743 -23.0625,-14.0625 -5.51296,-9.38866 -9.48066,-18.06551 -7,-29 3.02986,-8.75002 7.99303,-14.37583 16.16016,-18.65625 3.99825,-1.87289 8.0383,-3.60774 12.125,-5.27734 4.10362,-1.68153 6.70573,-3.04819 8.71484,-7.06641 0.75343,-7.38365 -1.94728,-12.70099 -5.75,-18.8125 -5.46839,-5.31649 -12.03894,-7.15594 -19.5,-7.375 -11.69726,0.23087 -22.38075,4.80312 -31.0625,12.75 -14.47493,15.8186 -20.61776,38.52146 -20.04297,59.48047 0.54182,10.14586 3.61299,19.98859 8.35547,28.95703 l 1.52734,2.89453 c 8.99718,16.21941 20.78206,24.78571 38.25782,30.19531 l 3.21484,0.91016 1.79004,0.53979 c 32.53536,6.77521 58.59919,-8.02651 85.58496,-23.84838 4.56793,-2.67201 9.1814,-5.25579 13.8125,-7.81641 l 2.27441,-1.25952 c 2.81322,-1.55708 5.62716,-3.11283 8.44239,-4.66626 17.66139,-9.76372 35.17683,-19.93569 52.0437,-31.02051 7.55995,-4.9545 15.31121,-9.57579 23.09057,-14.17578 2.69329,-1.59421 5.38234,-3.19536 8.07073,-4.79781 55.42977,-33.00537 55.42977,-33.00537 78.8907,-36.95512 1.62521,-0.39498 3.25022,-0.79075 4.875,-1.1875 28.35989,-5.33184 55.51729,8.06951 78.44141,23.40625 20.43704,14.70828 33.74855,34.86169 38.68359,59.78125 4.06276,27.40151 -3.00615,56.16277 -19.5,78.5 -1.48596,1.84473 -2.98538,3.67872 -4.5,5.5 l -1.96875,2.57422 c -26.57657,30.42579 -14.36581,17.55622 -49.03125,46.42578 39.87283,133.59253 44.177,142.07178 87.92722,279.85364 -43.11696,-0.46819 -12.05251,0.37982 -49.92722,-0.85364 -39.20875,-117.96318 -40.41673,-123.70853 -93,-272 -46.55988,47.94221 -49.55788,51.42854 -82,83 -3.8125,4.125 -3.8125,4.125 -5.51953,5.94531 -3.76315,5.22273 -3.76712,10.77395 -3.73203,16.93985 l -0.009,2.67804 c -0.008,2.95638 -10e-4,5.91255 0.005,8.86893 -0.003,2.12291 -0.006,4.24583 -0.011,6.36874 -0.6768,115.78874 1.52059,200.24182 1.06191,214.57559 -1.87629,28.13924 -26.76311,60.59072 -46.79462,79.80886 -29.67847,27.23964 -53.7176,33.41014 -89.77856,36.01534 -32.76225,1.7594 -69.37912,-8.2888 -94.34717,-30.48093 -13.56882,-12.44516 -25.91262,-25.18951 -35.875,-40.71973 l -1.4082,-2.15479 c -10.86855,-16.79579 -14.87371,-33.60464 -18.59705,-53.13724 -1.83934,-9.63825 -1.55998,-26.19154 0.005,-36.27047 l 0.33679,-2.18289 c 4.55423,-29.00679 15.00224,-56.41385 24.52025,-84.08167 3.21294,-9.35014 6.34748,-18.72499 9.45546,-28.11044 3.82814,-11.54462 7.72744,-23.06248 11.6875,-34.5625 4.06017,-11.7928 8.06319,-23.60292 12,-35.4375 l 0.75403,-2.26645 c 1.9919,-5.98932 3.97999,-11.97991 5.96741,-17.97073 10.81307,-32.59187 21.8514,-65.10668 33.02881,-97.57532 l 1.15674,-3.36304 c 2.02276,-5.85886 4.11303,-11.68148 6.32495,-17.47192 1.18466,-3.72376 1.2533,-6.53514 0.76831,-10.41504 -2.09863,-2.6788 -4.38568,-3.78338 -7.5,-5.05078 l -2.67188,-1.10718 -2.82812,-1.15454 c -17.43634,-7.32945 -31.2837,-16.70641 -45,-29.6875 l -2.30078,-2.17578 c -24.29791,-23.62646 -37.6594,-52.51636 -38.46314,-86.43945 -0.45662,-33.39296 7.46396,-66.62871 30.97486,-91.64258 l 1.78906,-1.74219 1.91406,-1.86719 c 23.65323,-20.81149 60.19393,-29.92401 90.08594,-19.13281 z m 218.01001,126.17383 c -46.23527,32.47017 -9.86765,8.5831 -69.25193,51.62177 4.07756,98.91555 1.39598,20.90141 6.47397,137.12791 106.87904,-101.87609 39.40246,-43.56416 112.94001,-115.06193 11.96118,20.69401 0.95209,1.67418 12.82794,22.13842 4.8659,0.89208 7.82218,0.46093 12.0625,-2.0625 10.0455,-7.36787 20.90132,-17.40008 25.9375,-28.9375 l 1.23047,-2.58594 c 5.69375,-14.49673 5.04253,-33.99361 -0.73828,-48.34765 -2.22775,-4.57797 -4.57828,-8.88901 -7.49219,-13.06641 l -2.0625,-3.125 c -8.69293,-9.80741 -23.80525,-15.27793 -36.58203,-16.11328 -21.47776,-0.57712 -37.29781,7.46096 -55.34546,18.41211 z M 442.52616,466.89615 c 67.77742,72.66286 2.8767,3.14717 69.91961,74.29486 -2.71918,-104.59652 0.26735,-9.81448 -2.91961,-108.29486 -64.6532,31.82331 -3.54586,1.39316 -67,34 z m -22.69737,39.50672 c -6.45244,16.1418 -1.87326,4.2509 -18.42909,44.6881 -2.26288,6.44635 -4.48724,12.90555 -6.69816,19.36988 -2.06432,6.03342 -4.14113,12.06255 -6.21835,18.09155 l -1.27177,3.69202 c -3.935,11.40687 -7.95314,22.78334 -11.99776,34.15173 -4.83717,13.59721 -9.64252,27.20484 -14.39453,40.83203 l -0.74288,2.12996 c -2.43275,6.97578 -4.8632,13.95235 -7.28907,20.93052 -1.11965,3.21985 -2.24099,6.4391 -3.36258,9.65827 l -1.29321,3.7143 c -2.43041,6.95507 -4.93975,13.87354 -7.53101,20.77008 -2.65558,7.10101 -4.8368,14.21891 -6.63672,21.58984 l -0.85596,3.39673 c -0.87439,3.4895 -1.73114,6.98284 -2.58154,10.47827 l -0.87354,3.58447 c -1.5449,6.36019 -3.0706,12.72467 -4.57324,19.09497 -0.35244,1.47837 -0.72031,2.9532 -1.1084,4.42261 -11.64435,49.68342 -5.1166,67.29977 15.55518,100.89795 11.91771,16.83613 32.75027,25.6053 52,31 l 3.74463,1.05347 c 4.20579,1.03664 8.21397,1.28522 12.53271,1.31762 l 2.33217,0.0274 c 1.62272,0.0144 3.2455,0.0234 4.86827,0.0271 2.42319,0.0118 4.84372,0.061 7.26636,0.11157 24.5996,0.2555 47.13806,-10.54826 65.07617,-27.20508 11.16224,-11.94244 19.82518,-27.30801 23.17969,-43.33208 l 0.53715,-2.38061 c 2.04207,-10.31568 1.75917,-20.68625 1.75338,-31.1543 -0.037,-58.53068 0.33108,-117.06256 0.1985,-175.59309 -0.002,-2.10217 0.003,-4.20435 0.0147,-6.30649 0.11501,-21.29949 -4.24452,-36.03631 -19.50373,-51.56551 -54.77094,-56.26139 -16.42255,-17.33471 -73.69737,-77.49328 z"
     fill="#818181"
     id="path2"
     style="fill:#828282;fill-opacity:1" />
</svg>
